#!OML:ASF E:\Mandelcareful walks\Project 1\Capture day 1\Session 1\Subject1.ASF
:FULLY-SPECIFIED
:DEGREES
316
root -10.936 16.613 -0.527089 507.399 83.1891 504.151
lowerback 10.3975 0.162182 -9.77061
upperback 7.12177 -0.190408 -0.687985
thorax 1.75378 -0.266159 4.78556
lowerneck -19.813 -0.143036 -1.59859
upperneck 36.934 2.40223 -1.54665
head 16.6949 0.914805 0.186921
rclavicle 2.98177e-016 4.37326e-015
rhumerus -27.4023 -4.92725 -81.4387
rradius 33.6819
rwrist -13.4932
rhand -8.28458 -31.6197
rfingers 7.12502
rthumb 17.635 -60.8399
lclavicle 2.98177e-016 4.37326e-015
lhumerus -23.0108 -3.66379 88.3546
lradius 34.9911
lwrist 16.4079
lhand -22.8036 -12.2768
lfingers 7.12502
lthumb 3.63274 17.672
rfemur -28.6015 6.5453 0.888691
rtibia 19.8898
rfoot -8.76134 -28.7918
rtoes 1.58955
lfemur -2.08699 3.1772 -23.9787
ltibia 25.8389
lfoot -21.576 5.32046
ltoes 6.3326
317
root -10.7973 16.588 -0.478947 502.044 83.4603 498.796
lowerback 10.6677 0.3889 -9.67797
upperback 6.99773 0.0723976 -0.78891
thorax 1.42984 -0.112213 4.60516
lowerneck -19.9345 0.702977 -0.705503
upperneck 36.8776 3.48941 -1.91883
head 16.7242 1.43123 0.080374
rclavicle -1.80894e-014 7.95139e-016
rhumerus -27.4484 -5.07327 -81.345
rradius 33.7711
rwrist -13.4549
rhand -8.1675 -31.6389
rfingers 7.12502
rthumb 17.7477 -60.849
lclavicle -1.80894e-014 7.95139e-016
lhumerus -23.6404 -4.05249 88.6012
lradius 35.4214
lwrist 16.6149
lhand -22.9793 -10.7959
lfingers 7.12502
lthumb 3.46314 19.1557
rfemur -29.0938 3.81397 1.60312
rtibia 19.8301
rfoot -4.35846 -25.8761
rtoes -4.95019
lfemur -1.31046 3.35372 -24.1998
ltibia 25.3858
lfoot -21.711 5.82654
ltoes 5.59743
318
root -10.638 16.5623 -0.417279 501.298 83.0203 498.12
lowerback 10.6283 0.318171 -9.6247
upperback 7.15201 0.00972741 -0.807335
thorax 1.625 -0.150228 4.56128
lowerneck -20.1554 1.78455 0.451974
upperneck 36.6227 4.91424 -2.57883
head 16.7229 2.07377 -0.131088
rclavicle 5.96354e-016 -4.57205e-015
rhumerus -27.1323 -5.35425 -81.2459
rradius 33.8888
rwrist -13.3434
rhand -8.15783 -32.1794
rfingers 7.12502
rthumb 17.757 -61.3887
lclavicle 5.96354e-016 -4.57205e-015
lhumerus -23.7171 -4.07909 88.7853
lradius 35.3778
lwrist 16.504
lhand -23.1631 -11.8054
lfingers 7.12502
lthumb 3.28557 18.149
rfemur -28.9746 1.63708 2.0652
rtibia 20.0359
rfoot -1.77564 -23.7002
rtoes -7.27892
lfemur -0.410447 3.05042 -24.2607
ltibia 24.9346
lfoot -21.797 5.92213
ltoes 5.00796
319
root -10.4758 16.5359 -0.343666 500.126 82.5806 497.088
lowerback 10.7472 0.305668 -9.66515
upperback 7.27836 -0.00326747 -0.802737
thorax 1.69934 -0.16044 4.58998
lowerneck -20.095 2.97765 1.61645
upperneck 36.2115 6.54142 -3.35711
head 16.6261 2.78844 -0.354369
rclavicle 2.3556e-014 4.03533e-014
rhumerus -26.9565 -5.63805 -81.0776
rradius 34.0881
rwrist -13.2869
rhand -8.38966 -31.9318
rfingers 7.12502
rthumb 17.5339 -61.1611
lclavicle 2.3556e-014 4.03533e-014
lhumerus -23.7794 -4.00318 88.9849
lradius 35.0547
lwrist 16.3364
lhand -22.8846 -10.7687
lfingers 7.12502
lthumb 3.55452 19.1815
rfemur -28.8486 -0.49691 2.59314
rtibia 20.6521
rfoot 0.767489 -21.2524
rtoes -5.66546
lfemur 0.591922 2.7889 -24.2974
ltibia 24.4591
lfoot -21.8951 5.86302
ltoes 4.8671
320
root -10.3313 16.5028 -0.278217 494.118 82.761 490.848
lowerback 10.7796 0.582332 -9.588
upperback 7.16557 0.349183 -0.900942
thorax 1.50585 0.0297996 4.41086
lowerneck -19.8057 4.14159 2.56529
upperneck 35.7929 8.12583 -3.90469
head 16.4887 3.49661 -0.44702
rclavicle 6.80837e-015 2.26615e-014
rhumerus -26.995 -5.86134 -80.9181
rradius 34.2672
rwrist -13.4112
rhand -9.04126 -30.7834
rfingers 7.12502
rthumb 16.9067 -60.0675
lclavicle 6.80837e-015 2.26615e-014
lhumerus -23.9588 -3.7512 89.1609
lradius 34.6668
lwrist 16.0198
lhand -22.8431 -11.0754
lfingers 7.12502
lthumb 3.59465 18.874
rfemur -29.7708 -3.44948 3.62983
rtibia 21.6812
rfoot 4.08787 -16.4758
rtoes -1.72946
lfemur 1.1681 3.08047 -24.574
ltibia 23.9942
lfoot -22.1286 6.22409
ltoes 4.33426
321
root -10.1629 16.4701 -0.194601 494.651 82.1903 491.46
lowerback 11.0896 0.532127 -9.44674
upperback 7.16953 0.266539 -0.91547
thorax 1.35102 0.00334458 4.3238
lowerneck -19.5231 5.25854 3.5846
upperneck 35.4038 9.61628 -4.44658
head 16.4031 4.17642 -0.563811
rclavicle 6.4605e-015 9.29318e-015
rhumerus -27.1422 -5.98359 -80.8487
rradius 34.5759
rwrist -13.6768
rhand -9.50397 -30.3199
rfingers 7.12502
rthumb 16.4613 -59.6415
lclavicle 6.4605e-015 9.29318e-015
lhumerus -24.243 -3.61761 89.2782
lradius 34.3974
lwrist 15.7809
lhand -22.7875 -11.099
lfingers 7.12502
lthumb 3.64827 18.8495
rfemur -29.7995 -5.60446 4.28974
rtibia 23.0097
rfoot 4.3967 -12.8595
rtoes 2.00771
lfemur 2.11636 2.66983 -24.5655
ltibia 23.5849
lfoot -22.3181 6.31839
ltoes 3.3188
322
root -9.99482 16.4343 -0.104346 496.317 81.6484 493.276
lowerback 11.5553 0.45021 -9.14515
upperback 7.20086 0.145434 -0.883743
thorax 1.14313 -0.0356317 4.20027
lowerneck -19.4239 6.28026 4.55099
upperneck 35.126 11.0106 -5.02291
head 16.4459 4.7967 -0.692689
rclavicle -1.35267e-015 1.74371e-014
rhumerus -27.1615 -6.08374 -80.7833
rradius 34.8479
rwrist -13.8456
rhand -9.32629 -30.8435
rfingers 7.12502
rthumb 16.6323 -60.1508
lclavicle -1.35267e-015 1.74371e-014
lhumerus -24.6083 -3.93218 89.4514
lradius 34.2038
lwrist 15.8225
lhand -22.7452 -10.8676
lfingers 7.12502
lthumb 3.68918 19.0802
rfemur -29.7395 -7.24292 4.92178
rtibia 24.5542
rfoot 3.09553 -10.5529
rtoes 3.75552
lfemur 3.0743 2.03549 -24.3867
ltibia 23.292
lfoot -22.5992 6.36721
ltoes 2.91644
323
root -9.83073 16.4015 -0.0066681 498.727 81.1524 495.713
lowerback 11.9828 0.334211 -8.77337
upperback 7.20729 -0.0115488 -0.76005
thorax 0.932609 -0.0938444 4.13941
lowerneck -19.4384 7.20891 5.31872
upperneck 34.9478 12.3407 -5.56373
head 16.5734 5.36272 -0.772655
rclavicle 1.2921e-014 6.55989e-015
rhumerus -27.0112 -6.08471 -80.6504
rradius 34.8143
rwrist -14.0512
rhand -9.29336 -30.8402
rfingers 7.12502
rthumb 16.664 -60.1449
lclavicle 1.2921e-014 6.55989e-015
lhumerus -24.9078 -4.29037 89.7181
lradius 33.9749
lwrist 15.8216
lhand -22.6677 -10.9437
lfingers 7.12502
lthumb 3.76403 19.0028
rfemur -29.9547 -8.43296 5.52439
rtibia 26.3546
rfoot 1.37928 -9.19176
rtoes 3.93388
lfemur 3.84724 1.45442 -24.0207
ltibia 23.0203
lfoot -22.8986 6.34361
ltoes 2.61412
324
root -9.66856 16.3703 0.0945901 500.258 80.7193 497.167
lowerback 11.9263 0.243737 -8.36501
upperback 7.47643 -0.0508948 -0.716531
thorax 1.2468 -0.113552 3.95991
lowerneck -19.3341 8.05087 6.14628
upperneck 34.2509 13.5185 -6.37986
head 16.4564 5.84147 -1.01403
rclavicle 1.09332e-015 8.44835e-015
rhumerus -26.5917 -6.12577 -80.6422
rradius 34.8566
rwrist -14.3707
rhand -9.54047 -30.1639
rfingers 7.12502
rthumb 16.4261 -59.4884
lclavicle 1.09332e-015 8.44835e-015
lhumerus -24.6828 -4.50007 89.8181
lradius 33.6514
lwrist 15.5032
lhand -22.4004 -11.3108
lfingers 7.12502
lthumb 4.02213 18.631
rfemur -30.4702 -9.4082 6.04233
rtibia 28.2714
rfoot -0.0666904 -8.41901
rtoes 3.80671
lfemur 4.41745 1.04248 -23.6974
ltibia 22.8877
lfoot -23.2312 6.42225
ltoes 2.26465
325
root -9.51201 16.3443 0.19892 501.002 80.4113 497.791
lowerback 12.4487 0.242592 -8.03915
upperback 7.38303 -0.0756969 -0.653115
thorax 0.861157 -0.0988634 3.84821
lowerneck -18.9595 8.83701 7.05523
upperneck 33.7475 14.6818 -7.25083
head 16.4166 6.33375 -1.29501
rclavicle -1.49089e-015 -1.55052e-014
rhumerus -26.6823 -5.94052 -80.561
rradius 34.9651
rwrist -14.6159
rhand -9.54528 -29.8434
rfingers 7.12502
rthumb 16.4215 -59.1684
lclavicle -1.49089e-015 -1.55052e-014
lhumerus -24.9986 -4.42371 89.8954
lradius 33.3965
lwrist 14.9588
lhand -22.0876 -11.8861
lfingers 7.12502
lthumb 4.32415 18.0497
rfemur -31.1597 -10.1801 6.55822
rtibia 30.2506
rfoot -1.34635 -7.98387
rtoes 4.84513
lfemur 4.82341 0.679959 -23.3938
ltibia 22.904
lfoot -23.6285 6.50107
ltoes 1.97242
